<svg width="80" height="80" viewBox="0 0 80 80" fill="none" xmlns="http://www.w3.org/2000/svg">
<circle cx="40" cy="40" r="39" fill="white" stroke="#D9ADAC" stroke-width="2"/>
<path d="M31.3027 51.1389H27.3828V61.8H24.7461V51.1389H20.8789V49.0032H31.3027V51.1389ZM44.8801 55.6917C44.8801 56.9514 44.6574 58.0559 44.2121 59.0051C43.7668 59.9543 43.1281 60.6868 42.2961 61.2024C41.4699 61.718 40.5207 61.9758 39.4484 61.9758C38.3879 61.9758 37.4416 61.7209 36.6096 61.2112C35.7775 60.7014 35.133 59.9749 34.676 59.0315C34.2189 58.0823 33.9875 56.9924 33.9816 55.762V55.1292C33.9816 53.8694 34.2072 52.762 34.6584 51.8069C35.1154 50.8459 35.757 50.1106 36.5832 49.6008C37.4152 49.0852 38.3645 48.8274 39.4309 48.8274C40.4973 48.8274 41.4436 49.0852 42.2697 49.6008C43.1018 50.1106 43.7434 50.8459 44.1945 51.8069C44.6516 52.762 44.8801 53.8665 44.8801 55.1204V55.6917ZM42.2082 55.1116C42.2082 53.7698 41.968 52.7502 41.4875 52.053C41.007 51.3557 40.3215 51.0071 39.4309 51.0071C38.5461 51.0071 37.8635 51.3528 37.383 52.0442C36.9025 52.7297 36.6594 53.7375 36.6535 55.0676V55.6917C36.6535 56.9983 36.8938 58.012 37.3742 58.7327C37.8547 59.4534 38.5461 59.8137 39.4484 59.8137C40.3332 59.8137 41.0129 59.468 41.4875 58.7766C41.9621 58.0793 42.2023 57.0657 42.2082 55.7356V55.1116ZM51.2328 57.2913V61.8H48.5961V49.0032H53.5883C54.5492 49.0032 55.393 49.179 56.1195 49.5305C56.852 49.8821 57.4145 50.3831 57.807 51.0334C58.1996 51.678 58.3959 52.4133 58.3959 53.2395C58.3959 54.4934 57.9652 55.4836 57.1039 56.2102C56.2484 56.9309 55.0619 57.2913 53.5443 57.2913H51.2328ZM51.2328 55.1555H53.5883C54.2855 55.1555 54.8158 54.9915 55.1791 54.6633C55.5482 54.3352 55.7328 53.8665 55.7328 53.2571C55.7328 52.6301 55.5482 52.1233 55.1791 51.7366C54.81 51.3499 54.3002 51.1506 53.6498 51.1389H51.2328V55.1555Z" fill="#666666"/>
<path d="M30.8125 39.8125L28 37L40 25L52 37L49.1875 39.8125L40 30.625L30.8125 39.8125Z" fill="#666666"/>
</svg>
