<svg width="100" height="100" viewBox="0 0 100 100" fill="none" xmlns="http://www.w3.org/2000/svg">
<circle cx="50" cy="50" r="48.5" fill="white" stroke="#D9ADAC" stroke-width="3"/>
<path d="M42.0027 62.3389H38.0828V73H35.4461V62.3389H31.5789V60.2031H42.0027V62.3389ZM55.5801 66.8916C55.5801 68.1514 55.3574 69.2559 54.9121 70.2051C54.4668 71.1543 53.8281 71.8867 52.9961 72.4023C52.1699 72.918 51.2207 73.1758 50.1484 73.1758C49.0879 73.1758 48.1416 72.9209 47.3096 72.4111C46.4775 71.9014 45.833 71.1748 45.376 70.2314C44.9189 69.2822 44.6875 68.1924 44.6816 66.9619V66.3291C44.6816 65.0693 44.9072 63.9619 45.3584 63.0068C45.8154 62.0459 46.457 61.3105 47.2832 60.8008C48.1152 60.2852 49.0645 60.0273 50.1309 60.0273C51.1973 60.0273 52.1436 60.2852 52.9697 60.8008C53.8018 61.3105 54.4434 62.0459 54.8945 63.0068C55.3516 63.9619 55.5801 65.0664 55.5801 66.3203V66.8916ZM52.9082 66.3115C52.9082 64.9697 52.668 63.9502 52.1875 63.2529C51.707 62.5557 51.0215 62.207 50.1309 62.207C49.2461 62.207 48.5635 62.5527 48.083 63.2441C47.6025 63.9297 47.3594 64.9375 47.3535 66.2676V66.8916C47.3535 68.1982 47.5938 69.2119 48.0742 69.9326C48.5547 70.6533 49.2461 71.0137 50.1484 71.0137C51.0332 71.0137 51.7129 70.668 52.1875 69.9766C52.6621 69.2793 52.9023 68.2656 52.9082 66.9355V66.3115ZM61.9328 68.4912V73H59.2961V60.2031H64.2883C65.2492 60.2031 66.093 60.3789 66.8195 60.7305C67.552 61.082 68.1145 61.583 68.507 62.2334C68.8996 62.8779 69.0959 63.6133 69.0959 64.4395C69.0959 65.6934 68.6652 66.6836 67.8039 67.4102C66.9484 68.1309 65.7619 68.4912 64.2443 68.4912H61.9328ZM61.9328 66.3555H64.2883C64.9855 66.3555 65.5158 66.1914 65.8791 65.8633C66.2482 65.5352 66.4328 65.0664 66.4328 64.457C66.4328 63.8301 66.2482 63.3232 65.8791 62.9365C65.51 62.5498 65.0002 62.3506 64.3498 62.3389H61.9328V66.3555Z" fill="#666666"/>
<path d="M38.5156 46.5547L35 43.0391L50 28.0391L65 43.0391L61.4844 46.5547L50 35.0703L38.5156 46.5547Z" fill="#666666"/>
</svg>
